#!OML:ASF E:\Mandelcareful walks\Project 1\Capture day 1\Session 1\Subject1.ASF
:FULLY-SPECIFIED
:DEGREES
387
root -13.8324 14.3115 -0.628792 -173.532 87.9242 169.078
lowerback 21.6818 0.988937 -4.83689
upperback 5.63045 0.556511 -1.16326
thorax -5.96985 0.477961 1.33907
lowerneck -25.0114 -0.340209 -5.07486
upperneck 16.4271 0.729689 2.74118
head 9.22704 0.333181 1.8853
rclavicle 1.19271e-014 -1.74931e-014
rhumerus -33.1459 10.4408 -85.4454
rradius 72.7922
rwrist -22.3813
rhand -24.6351 -15.5982
rfingers 7.12502
rthumb 1.86397 -45.5698
lclavicle 1.19271e-014 -1.74931e-014
lhumerus -21.3209 -25.3273 77.6991
lradius 90.5102
lwrist 25.1469
lhand -32.9479 -15.4695
lfingers 7.12502
lthumb -6.1639 14.4208
rfemur -40.7961 -22.7431 2.28617
rtibia 64.0461
rfoot -22.9141 -7.54023
rtoes -22.659
lfemur -57.4861 14.5962 -17.7774
ltibia 75.5366
lfoot -30.1899 16.2451
ltoes -11.8588
388
root -13.7664 14.3632 -0.696967 -163.879 87.801 178.808
lowerback 21.6568 1.06246 -4.89987
upperback 5.64135 0.654503 -0.93116
thorax -5.95334 0.524215 1.60039
lowerneck -25.1638 -0.473415 -5.09898
upperneck 16.6322 0.534093 2.87404
head 9.33287 0.254527 1.91084
rclavicle -1.39149e-014 1.35174e-014
rhumerus -33.3201 10.1444 -84.868
rradius 71.4103
rwrist -22.768
rhand -24.6027 -15.7645
rfingers 7.12502
rthumb 1.89524 -45.7359
lclavicle -1.39149e-014 1.35174e-014
lhumerus -22.7332 -25.7632 78.6822
lradius 89.6528
lwrist 23.1387
lhand -32.4592 -13.7174
lfingers 7.12502
lthumb -5.69205 16.1862
rfemur -40.6999 -21.9944 2.31598
rtibia 64.3189
rfoot -21.4941 -8.14771
rtoes -23.3207
lfemur -56.8824 14.7003 -17.6633
ltibia 75.0994
lfoot -30.3783 16.1814
ltoes -12.5521
389
root -13.6859 14.4116 -0.773195 -154.889 87.8619 188.099
lowerback 21.6816 1.17422 -4.93292
upperback 5.79294 0.816564 -0.769892
thorax -5.81328 0.601142 1.7519
lowerneck -25.5966 -0.620286 -5.1966
upperneck 17.0394 0.330122 3.13634
head 9.55842 0.182277 1.99721
rclavicle 2.0276e-014 1.19271e-015
rhumerus -33.3188 9.91831 -84.3196
rradius 70.1
rwrist -22.9894
rhand -24.6105 -14.8354
rfingers 7.12502
rthumb 1.88772 -44.8068
lclavicle 2.0276e-014 1.19271e-015
lhumerus -24.0448 -26.3756 79.6067
lradius 88.5419
lwrist 20.5372
lhand -31.8061 -11.6955
lfingers 7.12502
lthumb -5.06148 18.2241
rfemur -40.5227 -21.2815 2.22767
rtibia 64.9574
rfoot -19.9572 -8.36579
rtoes -23.3485
lfemur -55.8792 15.041 -17.5843
ltibia 74.6454
lfoot -30.7206 16.0826
ltoes -12.7969
390
root -13.6309 14.4432 -0.842841 -153.776 87.3267 188.908
lowerback 21.2311 1.03143 -4.82231
upperback 5.86273 0.692275 -0.642657
thorax -5.49737 0.532066 1.86454
lowerneck -26.2247 -0.713432 -5.11887
upperneck 17.4352 0.176758 3.25595
head 9.81339 0.130339 2.01352
rclavicle 1.19271e-014 4.09496e-014
rhumerus -33.2489 9.55515 -83.7918
rradius 69.2085
rwrist -22.9954
rhand -24.577 -14.1233
rfingers 7.12502
rthumb 1.92014 -44.0944
lclavicle 1.19271e-014 4.09496e-014
lhumerus -25.2005 -27.2739 80.3531
lradius 87.4285
lwrist 17.8446
lhand -30.7499 -9.99546
lfingers 7.12502
lthumb -4.04164 19.9459
rfemur -41.3293 -21.544 2.34913
rtibia 66.0321
rfoot -17.6025 -9.19038
rtoes -21.8765
lfemur -55.8609 14.7703 -17.7552
ltibia 74.28
lfoot -30.7401 15.9237
ltoes -12.9825
391
root -13.5591 14.4819 -0.915627 -153.331 87.118 189.284
lowerback 20.9126 1.03051 -5.05712
upperback 5.78031 0.657754 -0.49124
thorax -5.42168 0.511428 2.17269
lowerneck -25.7223 -0.63373 -4.83699
upperneck 17.3844 0.192805 3.09768
head 9.7092 0.135946 1.90996
rclavicle 9.14409e-015 2.22639e-014
rhumerus -33.8749 9.2759 -83.3339
rradius 69.0265
rwrist -23.003
rhand -24.5593 -14.4785
rfingers 7.12502
rthumb 1.93722 -44.4495
lclavicle 9.14409e-015 2.22639e-014
lhumerus -27.0687 -28.2558 81.3996
lradius 86.4224
lwrist 14.9752
lhand -29.5312 -8.98164
lfingers 7.12502
lthumb -2.86468 20.9789
rfemur -42.265 -21.7739 2.43907
rtibia 67.2763
rfoot -15.0812 -10.3357
rtoes -19.7562
lfemur -55.352 14.742 -17.9376
ltibia 73.8947
lfoot -31.0877 15.3815
ltoes -12.4044
392
root -13.4839 14.5127 -0.956557 -139.217 86.6954 203.708
lowerback 20.767 1.04184 -4.81712
upperback 6.01425 0.773164 -0.114374
thorax -5.10471 0.558839 2.41589
lowerneck -25.9261 -0.621967 -4.78368
upperneck 17.4508 0.187986 3.1432
head 9.76783 0.143433 1.91901
rclavicle 2.18663e-014 1.70955e-014
rhumerus -34.1599 8.99447 -82.9549
rradius 69.2395
rwrist -23.0316
rhand -24.9063 -14.9211
rfingers 7.12502
rthumb 1.60204 -44.8948
lclavicle 2.18663e-014 1.70955e-014
lhumerus -28.4753 -29.3588 82.1525
lradius 85.311
lwrist 12.1487
lhand -27.8746 -8.41822
lfingers 7.12502
lthumb -1.26481 21.5578
rfemur -43.1165 -21.4057 3.63075
rtibia 68.5433
rfoot -13.1931 -12.1053
rtoes -18.4149
lfemur -54.5868 15.2926 -17.0623
ltibia 73.5592
lfoot -31.1617 14.8016
ltoes -12.4875
393
root -13.4215 14.5391 -1.00736 -140.018 86.4576 203.018
lowerback 20.8874 0.934123 -5.08632
upperback 6.04259 0.58855 0.0574861
thorax -5.12299 0.471059 2.79953
lowerneck -26.1856 -0.453541 -4.63349
upperneck 17.6392 0.38967 3.07617
head 9.87093 0.23817 1.90643
rclavicle 5.56597e-015 2.98177e-014
rhumerus -34.6158 8.9129 -82.6704
rradius 69.6671
rwrist -23.0469
rhand -25.35 -14.7302
rfingers 7.12502
rthumb 1.17355 -44.7068
lclavicle 5.56597e-015 2.98177e-014
lhumerus -30.3001 -30.4798 83.0413
lradius 84.4919
lwrist 9.79673
lhand -25.6831 -8.27411
lfingers 7.12502
lthumb 0.851856 21.7039
rfemur -44.2651 -21.8237 4.13699
rtibia 69.7731
rfoot -11.4208 -13.9866
rtoes -18.2977
lfemur -54.0645 15.3481 -17.1652
ltibia 73.1867
lfoot -31.1468 14.8271
ltoes -13.7596
394
root -13.315 14.579 -1.0828 -132.949 87.1481 210.747
lowerback 20.9399 1.21437 -5.37203
upperback 6.40436 0.92117 -0.0481078
thorax -4.78474 0.629473 2.76732
lowerneck -26.4068 -0.363654 -4.39847
upperneck 17.6713 0.442263 3.0418
head 9.91843 0.275456 1.86639
rclavicle 1.27222e-014 6.75868e-015
rhumerus -34.8995 8.30249 -82.5112
rradius 70.2035
rwrist -23.0457
rhand -25.3764 -14.4686
rfingers 7.12502
rthumb 1.14804 -44.4452
lclavicle 1.27222e-014 6.75868e-015
lhumerus -32.076 -32.0204 83.7724
lradius 83.9766
lwrist 8.00401
lhand -24.0953 -8.9072
lfingers 7.12502
lthumb 2.38531 21.0592
rfemur -44.8587 -21.5793 4.35341
rtibia 70.6071
rfoot -10.1393 -15.6
rtoes -17.4706
lfemur -52.3603 16.1324 -17.3191
ltibia 72.7463
lfoot -31.7902 14.6848
ltoes -14.0362
395
root -13.2642 14.5886 -1.1236 -137.109 87.0901 206.536
lowerback 20.7961 1.12913 -5.70479
upperback 6.59939 0.78072 0.0717202
thorax -4.4878 0.554064 3.12286
lowerneck -26.8452 -0.27406 -4.42847
upperneck 17.6538 0.634979 2.88015
head 9.97928 0.343433 1.84672
rclavicle -7.15625e-015 -1.98785e-015
rhumerus -35.0379 7.92114 -82.2064
rradius 71.1122
rwrist -23.3033
rhand -25.3148 -14.9551
rfingers 7.12502
rthumb 1.20749 -44.9315
lclavicle -7.15625e-015 -1.98785e-015
lhumerus -33.6623 -33.4015 84.6756
lradius 83.3883
lwrist 6.31548
lhand -23.5125 -10.243
lfingers 7.12502
lthumb 2.94817 19.7163
rfemur -46.2596 -22.172 4.89689
rtibia 71.4066
rfoot -9.78512 -17.1256
rtoes -13.5204
lfemur -52.0599 16.0391 -17.5989
ltibia 72.4415
lfoot -31.9061 14.5011
ltoes -13.6657
